<?xml version="1.0" encoding="utf-8"?>
<!-- Generator: Adobe Illustrator 26.1.0, SVG Export Plug-In . SVG Version: 6.00 Build 0)  -->
<svg version="1.1" id="Livello_1" xmlns="http://www.w3.org/2000/svg" xmlns:xlink="http://www.w3.org/1999/xlink" x="0px" y="0px"
	 viewBox="0 0 700 700" style="enable-background:new 0 0 700 700;" xml:space="preserve">
<path d="M579.8,51.3l-32.7,3.5l43.2,544.8l33.8-3.5L579.8,51.3z"/>
<path d="M75.8,596.2l33.8,3.5l43.2-544.8l-32.7-3.5L75.8,596.2z"/>
<path d="M333.7,52.5h33.8v547.2h-33.8V52.5z"/>
<path d="M459.7,526.2l2.3,60.7l33.8-1.2l-2.3-61.8L459.7,526.2z"/>
<path d="M486.5,371l-33.8,1.2l3.5,61.8l32.7-2.3L486.5,371z"/>
<path d="M479.5,217l-33.8,2.3l3.5,60.7l33.8-1.2L479.5,217z"/>
<path d="M472.5,64.2l-32.7,1.2l2.3,61.8l33.8-2.3L472.5,64.2z"/>
<path d="M224,124.8l33.8,2.3l2.3-61.8l-32.7-1.2L224,124.8z"/>
<path d="M217,278.8l33.8,1.2l3.5-60.7l-33.8-2.3L217,278.8z"/>
<path d="M211.2,431.7l32.7,2.3l3.5-61.8l-33.8-1.2L211.2,431.7z"/>
<path d="M204.2,585.7l33.8,1.2l2.3-60.7l-33.8-2.3L204.2,585.7z"/>
</svg>
